<?xml version="1.0" encoding="UTF-8" standalone="no"?>
<!-- Created with Inkscape (http://www.inkscape.org/) -->

<svg
   width="534.82678"
   height="173.41296"
   viewBox="0 0 534.82678 173.41296"
   version="1.1"
   id="svg12"
   xml:space="preserve"
   xmlns="http://www.w3.org/2000/svg"
   xmlns:svg="http://www.w3.org/2000/svg"
   xmlns:rdf="http://www.w3.org/1999/02/22-rdf-syntax-ns#"
   xmlns:cc="http://creativecommons.org/ns#"
   xmlns:dc="http://purl.org/dc/elements/1.1/"><title
     id="title583">Fireline Games</title><defs
     id="defs9"><clipPath
       clipPathUnits="userSpaceOnUse"
       id="clipPath52"><path
         d="M 632.328,425.192 H 236.164 v 3.513 h 396.164 z"
         id="path50" /></clipPath><linearGradient
       x1="0"
       y1="0"
       x2="1"
       y2="0"
       gradientUnits="userSpaceOnUse"
       gradientTransform="matrix(0,-29.936346,-29.936346,0,434.24664,443.4314)"
       spreadMethod="pad"
       id="linearGradient62"><stop
         style="stop-opacity:1;stop-color:#fca35b"
         offset="0"
         id="stop58" /><stop
         style="stop-opacity:1;stop-color:#cd3a55"
         offset="1"
         id="stop60" /></linearGradient><clipPath
       clipPathUnits="userSpaceOnUse"
       id="clipPath72"><path
         d="m 235.668,456.014 h 20.056 v 27.203 h 28.493 v 16.434 h -48.549 z"
         id="path70" /></clipPath><linearGradient
       x1="0"
       y1="0"
       x2="1"
       y2="0"
       gradientUnits="userSpaceOnUse"
       gradientTransform="matrix(0,-146.689,-146.689,0,259.94272,597.92493)"
       spreadMethod="pad"
       id="linearGradient82"><stop
         style="stop-opacity:1;stop-color:#fca35b"
         offset="0"
         id="stop78" /><stop
         style="stop-opacity:1;stop-color:#cd3a55"
         offset="1"
         id="stop80" /></linearGradient><clipPath
       clipPathUnits="userSpaceOnUse"
       id="clipPath92"><path
         d="m 305.53,456.018 h 20.256 V 530.86 H 305.53 Z"
         id="path90" /></clipPath><linearGradient
       x1="0"
       y1="0"
       x2="1"
       y2="0"
       gradientUnits="userSpaceOnUse"
       gradientTransform="matrix(0,-146.68921,-146.68921,0,315.65802,597.92474)"
       spreadMethod="pad"
       id="linearGradient102"><stop
         style="stop-opacity:1;stop-color:#fca35b"
         offset="0"
         id="stop98" /><stop
         style="stop-opacity:1;stop-color:#cd3a55"
         offset="1"
         id="stop100" /></linearGradient><clipPath
       clipPathUnits="userSpaceOnUse"
       id="clipPath112"><path
         d="m 347.745,530.86 v -74.843 h 20.054 v 21.815 h 11.109 c 3.317,0 5.587,-0.595 6.811,-1.784 v 0 c 1.222,-1.19 1.834,-3.376 1.834,-6.559 v 0 -13.472 h 20.508 v 15.432 c 0,4.657 -1.157,8.243 -3.469,10.756 v 0 c -2.311,2.513 -5.998,4.188 -11.057,5.026 v 0 c 4.792,0.603 8.409,2.337 10.857,5.202 v 0 c 2.446,2.865 3.669,6.828 3.669,11.887 v 0 6.032 c 0,7.606 -2.145,12.926 -6.434,15.959 v 0 c -4.29,3.032 -12.198,4.549 -23.725,4.549 v 0 z m 20.054,-16.687 h 11.21 c 3.317,0 5.586,-0.596 6.81,-1.785 v 0 c 1.223,-1.19 1.834,-3.376 1.834,-6.559 v 0 -2.866 c 0,-3.15 -0.603,-5.312 -1.809,-6.483 v 0 c -1.206,-1.173 -3.484,-1.76 -6.835,-1.76 v 0 h -11.21 z"
         id="path110" /></clipPath><linearGradient
       x1="0"
       y1="0"
       x2="1"
       y2="0"
       gradientUnits="userSpaceOnUse"
       gradientTransform="matrix(0,-146.68921,-146.68921,0,377.90247,597.92474)"
       spreadMethod="pad"
       id="linearGradient122"><stop
         style="stop-opacity:1;stop-color:#fca35b"
         offset="0"
         id="stop118" /><stop
         style="stop-opacity:1;stop-color:#cd3a55"
         offset="1"
         id="stop120" /></linearGradient><clipPath
       clipPathUnits="userSpaceOnUse"
       id="clipPath132"><path
         d="m 427.808,530.86 v -74.843 h 57.049 v 16.688 h -36.994 v 14.074 h 35.133 v 14.426 h -35.133 v 12.968 h 36.189 v 16.687 z"
         id="path130" /></clipPath><linearGradient
       x1="0"
       y1="0"
       x2="1"
       y2="0"
       gradientUnits="userSpaceOnUse"
       gradientTransform="matrix(0,-146.68921,-146.68921,0,456.3327,597.92474)"
       spreadMethod="pad"
       id="linearGradient142"><stop
         style="stop-opacity:1;stop-color:#fca35b"
         offset="0"
         id="stop138" /><stop
         style="stop-opacity:1;stop-color:#cd3a55"
         offset="1"
         id="stop140" /></linearGradient><clipPath
       clipPathUnits="userSpaceOnUse"
       id="clipPath152"><path
         d="M 0,1000 H 1000 V 0 H 0 Z"
         id="path150" /></clipPath><clipPath
       clipPathUnits="userSpaceOnUse"
       id="clipPath174"><path
         d="m 254.764,577.34 c -5.211,-6.675 2.707,-27.109 5.21,-34.916 v 0 c 1.385,-4.33 -1.133,-9.336 -5.021,-11.572 v 0 c -2.504,-1.448 -5.558,-1.747 -8.485,0 v 0 c -0.725,0.426 -1.433,0.961 -2.126,1.654 v 0 c -7.603,7.541 -0.692,20.181 -0.126,21.205 v 0 c -0.645,-0.567 -11.35,-10.564 -11.618,-21.064 v 0 c -0.173,-6.359 1.59,-11.633 3.07,-14.892 v 0 c 0.01,-0.023 0.021,-0.045 0.031,-0.068 v 0 c 0.989,-2.16 3.171,-3.521 5.547,-3.521 v 0 h 39.803 c 1.896,0 3.702,0.857 4.844,2.37 v 0 c 0.029,0.039 0.059,0.077 0.087,0.117 v 0 c 1.874,2.534 4.235,7.226 4.566,15.018 v 0 c 0.566,13.209 -11.256,24.889 -21.394,35.578 v 0 c -10.154,10.705 -4.03,19.457 -4.03,19.457 v 0 c 0,0 -5.148,-2.707 -10.358,-9.366"
         id="path172" /></clipPath><linearGradient
       x1="0"
       y1="0"
       x2="1"
       y2="0"
       gradientUnits="userSpaceOnUse"
       gradientTransform="matrix(0,-146.68871,-146.68871,0,261.57596,597.92462)"
       spreadMethod="pad"
       id="linearGradient184"><stop
         style="stop-opacity:1;stop-color:#fca35b"
         offset="0"
         id="stop180" /><stop
         style="stop-opacity:1;stop-color:#cd3a55"
         offset="1"
         id="stop182" /></linearGradient><clipPath
       clipPathUnits="userSpaceOnUse"
       id="clipPath194"><path
         d="m 644.828,439.362 c -1.419,-0.828 -2.512,-1.997 -3.286,-3.506 v 0 c -0.773,-1.509 -1.16,-3.257 -1.16,-5.246 v 0 -7.894 c 0,-1.877 0.393,-3.527 1.178,-4.951 v 0 c 0.784,-1.423 1.892,-2.524 3.321,-3.302 v 0 c 1.43,-0.78 3.091,-1.17 4.978,-1.17 v 0 c 1.867,0 3.507,0.415 4.925,1.242 v 0 c 1.416,0.828 2.512,2 3.284,3.515 v 0 c 0.773,1.516 1.16,3.267 1.16,5.255 v 0 4.675 h -9.276 v -3.589 h 5.43 v -1.16 c 0,-1.3 -0.227,-2.422 -0.681,-3.368 v 0 c -0.455,-0.945 -1.099,-1.665 -1.934,-2.162 v 0 c -0.833,-0.497 -1.802,-0.745 -2.908,-0.745 v 0 c -1.115,0 -2.099,0.239 -2.952,0.718 v 0 c -0.852,0.479 -1.513,1.15 -1.979,2.014 v 0 c -0.466,0.866 -0.698,1.875 -0.698,3.028 v 0 7.894 c 0,1.265 0.225,2.372 0.679,3.322 v 0 c 0.455,0.952 1.098,1.69 1.933,2.219 v 0 c 0.834,0.526 1.804,0.79 2.908,0.79 v 0 c 0.761,0 1.497,-0.167 2.208,-0.505 v 0 c 0.712,-0.337 1.331,-0.828 1.86,-1.472 v 0 c 0.527,-0.644 0.901,-1.415 1.121,-2.311 v 0 h 4.067 c -0.306,1.583 -0.895,2.977 -1.767,4.178 v 0 c -0.869,1.203 -1.953,2.132 -3.248,2.789 v 0 c -1.294,0.655 -2.708,0.984 -4.241,0.984 v 0 c -1.865,0 -3.506,-0.414 -4.922,-1.242"
         id="path192" /></clipPath><linearGradient
       x1="0"
       y1="0"
       x2="1"
       y2="0"
       gradientUnits="userSpaceOnUse"
       gradientTransform="matrix(0,-39.531017,-39.531017,0,649.80579,452.26816)"
       spreadMethod="pad"
       id="linearGradient204"><stop
         style="stop-opacity:1;stop-color:#fca35b"
         offset="0"
         id="stop200" /><stop
         style="stop-opacity:1;stop-color:#cd3a55"
         offset="1"
         id="stop202" /></linearGradient><clipPath
       clipPathUnits="userSpaceOnUse"
       id="clipPath214"><path
         d="m 673.747,440.328 -9.864,-26.759 h 4.047 l 2.018,5.871 h 10.798 l 2.017,-5.871 h 4.05 l -9.864,26.759 z m 1.6,-5.172 4.173,-12.145 h -8.346 z"
         id="path212" /></clipPath><linearGradient
       x1="0"
       y1="0"
       x2="1"
       y2="0"
       gradientUnits="userSpaceOnUse"
       gradientTransform="matrix(0,-39.531044,-39.531044,0,675.34808,452.26807)"
       spreadMethod="pad"
       id="linearGradient224"><stop
         style="stop-opacity:1;stop-color:#fca35b"
         offset="0"
         id="stop220" /><stop
         style="stop-opacity:1;stop-color:#cd3a55"
         offset="1"
         id="stop222" /></linearGradient><clipPath
       clipPathUnits="userSpaceOnUse"
       id="clipPath234"><path
         d="m 712.354,440.328 -7.858,-17.668 -7.857,17.668 h -3.516 v -26.759 h 3.662 v 18.082 l 6.405,-14.364 h 2.613 l 6.405,14.722 v -18.44 h 3.661 v 26.759 z"
         id="path232" /></clipPath><linearGradient
       x1="0"
       y1="0"
       x2="1"
       y2="0"
       gradientUnits="userSpaceOnUse"
       gradientTransform="matrix(0,-39.531044,-39.531044,0,704.4964,452.26807)"
       spreadMethod="pad"
       id="linearGradient244"><stop
         style="stop-opacity:1;stop-color:#fca35b"
         offset="0"
         id="stop240" /><stop
         style="stop-opacity:1;stop-color:#cd3a55"
         offset="1"
         id="stop242" /></linearGradient><clipPath
       clipPathUnits="userSpaceOnUse"
       id="clipPath254"><path
         d="m 728.51,440.328 h -3.754 v -26.759 h 1.822 15.367 v 3.57 H 728.51 v 7.932 h 11.411 v 3.57 H 728.51 v 8.116 h 13.435 v 3.571 z"
         id="path252" /></clipPath><linearGradient
       x1="0"
       y1="0"
       x2="1"
       y2="0"
       gradientUnits="userSpaceOnUse"
       gradientTransform="matrix(0,-39.531044,-39.531044,0,733.3501,452.26807)"
       spreadMethod="pad"
       id="linearGradient264"><stop
         style="stop-opacity:1;stop-color:#fca35b"
         offset="0"
         id="stop260" /><stop
         style="stop-opacity:1;stop-color:#cd3a55"
         offset="1"
         id="stop262" /></linearGradient><clipPath
       clipPathUnits="userSpaceOnUse"
       id="clipPath274"><path
         d="m 753.519,439.684 c -1.424,-0.614 -2.505,-1.506 -3.248,-2.677 v 0 c -0.743,-1.172 -1.113,-2.587 -1.113,-4.242 v 0 -0.019 c 0,-1.89 0.398,-3.347 1.196,-4.371 v 0 c 0.797,-1.024 1.756,-1.73 2.879,-2.116 v 0 c 1.123,-0.387 2.581,-0.734 4.372,-1.04 v 0 l 0.276,-0.055 c 0.036,-0.012 0.077,-0.019 0.119,-0.019 v 0 c 0.043,0 0.082,-0.007 0.12,-0.018 v 0 c 1.214,-0.221 2.204,-0.463 2.972,-0.727 v 0 c 0.766,-0.264 1.392,-0.669 1.878,-1.215 v 0 c 0.483,-0.546 0.725,-1.285 0.725,-2.217 v 0 -0.019 c 0,-1.313 -0.533,-2.328 -1.6,-3.046 v 0 c -1.067,-0.717 -2.571,-1.076 -4.51,-1.076 v 0 c -1.435,0 -2.767,0.22 -3.993,0.662 v 0 c -1.227,0.441 -2.349,1.105 -3.367,1.988 v 0 l -2.339,-2.872 c 0.872,-0.735 1.809,-1.35 2.808,-1.839 v 0 c 0.999,-0.491 2.077,-0.86 3.23,-1.104 v 0 c 1.154,-0.245 1.73,-0.369 1.73,-0.369 v 0 h 1.931 c 2.074,0 3.845,0.304 5.311,0.911 v 0 c 1.465,0.608 2.586,1.491 3.357,2.651 v 0 c 0.775,1.159 1.16,2.555 1.16,4.187 v 0 0.036 c 0,1.754 -0.366,3.138 -1.095,4.15 v 0 c -0.729,1.012 -1.637,1.745 -2.723,2.2 v 0 c -1.085,0.454 -2.439,0.845 -4.059,1.177 v 0 c -0.061,0.012 -0.128,0.024 -0.202,0.036 v 0 c -0.072,0.013 -0.141,0.025 -0.202,0.037 v 0 c -0.05,0.013 -0.094,0.022 -0.139,0.029 v 0 c -0.043,0.005 -0.089,0.015 -0.136,0.027 v 0 c -1.388,0.27 -2.469,0.531 -3.249,0.782 v 0 c -0.779,0.252 -1.431,0.641 -1.951,1.168 v 0 c -0.522,0.528 -0.783,1.252 -0.783,2.172 v 0 0.019 c 0,1.337 0.506,2.37 1.519,3.1 v 0 c 1.012,0.73 2.432,1.096 4.26,1.096 v 0 c 1.019,0 2.033,-0.188 3.046,-0.562 v 0 c 1.012,-0.374 2.028,-0.935 3.045,-1.684 v 0 l 2.137,2.982 c -0.872,0.625 -1.759,1.145 -2.661,1.555 v 0 c -0.9,0.411 -1.815,0.721 -2.743,0.93 v 0 c -0.926,0.208 -1.867,0.312 -2.824,0.312 v 0 c -1.999,0 -3.71,-0.307 -5.134,-0.92"
         id="path272" /></clipPath><linearGradient
       x1="0"
       y1="0"
       x2="1"
       y2="0"
       gradientUnits="userSpaceOnUse"
       gradientTransform="matrix(0,-39.531017,-39.531017,0,757.65009,452.26816)"
       spreadMethod="pad"
       id="linearGradient284"><stop
         style="stop-opacity:1;stop-color:#fca35b"
         offset="0"
         id="stop280" /><stop
         style="stop-opacity:1;stop-color:#cd3a55"
         offset="1"
         id="stop282" /></linearGradient></defs><g
     id="g46"
     transform="matrix(1,0,0,-1,-232.58621,586.70599)"><g
       id="g48"
       clip-path="url(#clipPath52)"><g
         id="g54"><g
           id="g56"><path
             d="M 632.328,425.192 H 236.164 v 3.513 h 396.164 z"
             style="fill:url(#linearGradient62);stroke:none"
             id="path64" /></g></g></g></g><g
     id="g66"
     transform="matrix(1,0,0,-1,-232.58621,586.70599)"><g
       id="g68"
       clip-path="url(#clipPath72)"><g
         id="g74"><g
           id="g76"><path
             d="m 235.668,456.014 h 20.056 v 27.203 h 28.493 v 16.434 h -48.549 z"
             style="fill:url(#linearGradient82);stroke:none"
             id="path84" /></g></g></g></g><g
     id="g86"
     transform="matrix(1,0,0,-1,-232.58621,586.70599)"><g
       id="g88"
       clip-path="url(#clipPath92)"><g
         id="g94"><g
           id="g96"><path
             d="m 305.53,456.018 h 20.256 V 530.86 H 305.53 Z"
             style="fill:url(#linearGradient102);stroke:none"
             id="path104" /></g></g></g></g><g
     id="g106"
     transform="matrix(1,0,0,-1,-232.58621,586.70599)"><g
       id="g108"
       clip-path="url(#clipPath112)"><g
         id="g114"><g
           id="g116"><path
             d="m 347.745,530.86 v -74.843 h 20.054 v 21.815 h 11.109 c 3.317,0 5.587,-0.595 6.811,-1.784 v 0 c 1.222,-1.19 1.834,-3.376 1.834,-6.559 v 0 -13.472 h 20.508 v 15.432 c 0,4.657 -1.157,8.243 -3.469,10.756 v 0 c -2.311,2.513 -5.998,4.188 -11.057,5.026 v 0 c 4.792,0.603 8.409,2.337 10.857,5.202 v 0 c 2.446,2.865 3.669,6.828 3.669,11.887 v 0 6.032 c 0,7.606 -2.145,12.926 -6.434,15.959 v 0 c -4.29,3.032 -12.198,4.549 -23.725,4.549 v 0 z m 20.054,-16.687 h 11.21 c 3.317,0 5.586,-0.596 6.81,-1.785 v 0 c 1.223,-1.19 1.834,-3.376 1.834,-6.559 v 0 -2.866 c 0,-3.15 -0.603,-5.312 -1.809,-6.483 v 0 c -1.206,-1.173 -3.484,-1.76 -6.835,-1.76 v 0 h -11.21 z"
             style="fill:url(#linearGradient122);stroke:none"
             id="path124" /></g></g></g></g><g
     id="g126"
     transform="matrix(1,0,0,-1,-232.58621,586.70599)"><g
       id="g128"
       clip-path="url(#clipPath132)"><g
         id="g134"><g
           id="g136"><path
             d="m 427.808,530.86 v -74.843 h 57.049 v 16.688 h -36.994 v 14.074 h 35.133 v 14.426 h -35.133 v 12.968 h 36.189 v 16.687 z"
             style="fill:url(#linearGradient142);stroke:none"
             id="path144" /></g></g></g></g><g
     id="g146"
     transform="matrix(1,0,0,-1,-232.58621,586.70599)"><g
       id="g148"
       clip-path="url(#clipPath152)"><g
         id="g154"
         transform="translate(525.1621,530.8599)"><path
           d="m 0,0 h -20.256 v -74.842 h 53.732 v 17.391 H 0 Z"
           style="fill:#ffffff;fill-opacity:1;fill-rule:nonzero;stroke:none"
           id="path156" /></g><path
         d="M 574.464,456.018 H 594.72 V 530.86 H 574.464 Z"
         style="fill:#ffffff;fill-opacity:1;fill-rule:nonzero;stroke:none"
         id="path158" /><g
         id="g160"
         transform="translate(669.7568,475.2681)"><path
           d="M 0,0 -23.271,55.592 H -53.077 V -19.25 h 19.099 V 36.843 L -10.705,-19.25 H 19.149 V 55.592 H 0 Z"
           style="fill:#ffffff;fill-opacity:1;fill-rule:nonzero;stroke:none"
           id="path162" /></g><g
         id="g164"
         transform="translate(730.4189,472.7056)"><path
           d="M 0,0 V 14.074 H 35.132 V 28.499 H 0 V 41.467 H 36.189 V 58.154 H -20.055 V -16.688 H 36.994 V 0 Z"
           style="fill:#ffffff;fill-opacity:1;fill-rule:nonzero;stroke:none"
           id="path166" /></g></g></g><g
     id="g168"
     transform="matrix(1,0,0,-1,-232.58621,586.70599)"><g
       id="g170"
       clip-path="url(#clipPath174)"><g
         id="g176"><g
           id="g178"><path
             d="m 254.764,577.34 c -5.211,-6.675 2.707,-27.109 5.21,-34.916 v 0 c 1.385,-4.33 -1.133,-9.336 -5.021,-11.572 v 0 c -2.504,-1.448 -5.558,-1.747 -8.485,0 v 0 c -0.725,0.426 -1.433,0.961 -2.126,1.654 v 0 c -7.603,7.541 -0.692,20.181 -0.126,21.205 v 0 c -0.645,-0.567 -11.35,-10.564 -11.618,-21.064 v 0 c -0.173,-6.359 1.59,-11.633 3.07,-14.892 v 0 c 0.01,-0.023 0.021,-0.045 0.031,-0.068 v 0 c 0.989,-2.16 3.171,-3.521 5.547,-3.521 v 0 h 39.803 c 1.896,0 3.702,0.857 4.844,2.37 v 0 c 0.029,0.039 0.059,0.077 0.087,0.117 v 0 c 1.874,2.534 4.235,7.226 4.566,15.018 v 0 c 0.566,13.209 -11.256,24.889 -21.394,35.578 v 0 c -10.154,10.705 -4.03,19.457 -4.03,19.457 v 0 c 0,0 -5.148,-2.707 -10.358,-9.366"
             style="fill:url(#linearGradient184);stroke:none"
             id="path186" /></g></g></g></g><g
     id="g188"
     transform="matrix(1,0,0,-1,-232.58621,586.70599)"><g
       id="g190"
       clip-path="url(#clipPath194)"><g
         id="g196"><g
           id="g198"><path
             d="m 644.828,439.362 c -1.419,-0.828 -2.512,-1.997 -3.286,-3.506 v 0 c -0.773,-1.509 -1.16,-3.257 -1.16,-5.246 v 0 -7.894 c 0,-1.877 0.393,-3.527 1.178,-4.951 v 0 c 0.784,-1.423 1.892,-2.524 3.321,-3.302 v 0 c 1.43,-0.78 3.091,-1.17 4.978,-1.17 v 0 c 1.867,0 3.507,0.415 4.925,1.242 v 0 c 1.416,0.828 2.512,2 3.284,3.515 v 0 c 0.773,1.516 1.16,3.267 1.16,5.255 v 0 4.675 h -9.276 v -3.589 h 5.43 v -1.16 c 0,-1.3 -0.227,-2.422 -0.681,-3.368 v 0 c -0.455,-0.945 -1.099,-1.665 -1.934,-2.162 v 0 c -0.833,-0.497 -1.802,-0.745 -2.908,-0.745 v 0 c -1.115,0 -2.099,0.239 -2.952,0.718 v 0 c -0.852,0.479 -1.513,1.15 -1.979,2.014 v 0 c -0.466,0.866 -0.698,1.875 -0.698,3.028 v 0 7.894 c 0,1.265 0.225,2.372 0.679,3.322 v 0 c 0.455,0.952 1.098,1.69 1.933,2.219 v 0 c 0.834,0.526 1.804,0.79 2.908,0.79 v 0 c 0.761,0 1.497,-0.167 2.208,-0.505 v 0 c 0.712,-0.337 1.331,-0.828 1.86,-1.472 v 0 c 0.527,-0.644 0.901,-1.415 1.121,-2.311 v 0 h 4.067 c -0.306,1.583 -0.895,2.977 -1.767,4.178 v 0 c -0.869,1.203 -1.953,2.132 -3.248,2.789 v 0 c -1.294,0.655 -2.708,0.984 -4.241,0.984 v 0 c -1.865,0 -3.506,-0.414 -4.922,-1.242"
             style="fill:url(#linearGradient204);stroke:none"
             id="path206" /></g></g></g></g><g
     id="g208"
     transform="matrix(1,0,0,-1,-232.58621,586.70599)"><g
       id="g210"
       clip-path="url(#clipPath214)"><g
         id="g216"><g
           id="g218"><path
             d="m 673.747,440.328 -9.864,-26.759 h 4.047 l 2.018,5.871 h 10.798 l 2.017,-5.871 h 4.05 l -9.864,26.759 z m 1.6,-5.172 4.173,-12.145 h -8.346 z"
             style="fill:url(#linearGradient224);stroke:none"
             id="path226" /></g></g></g></g><g
     id="g228"
     transform="matrix(1,0,0,-1,-232.58621,586.70599)"><g
       id="g230"
       clip-path="url(#clipPath234)"><g
         id="g236"><g
           id="g238"><path
             d="m 712.354,440.328 -7.858,-17.668 -7.857,17.668 h -3.516 v -26.759 h 3.662 v 18.082 l 6.405,-14.364 h 2.613 l 6.405,14.722 v -18.44 h 3.661 v 26.759 z"
             style="fill:url(#linearGradient244);stroke:none"
             id="path246" /></g></g></g></g><g
     id="g248"
     transform="matrix(1,0,0,-1,-232.58621,586.70599)"><g
       id="g250"
       clip-path="url(#clipPath254)"><g
         id="g256"><g
           id="g258"><path
             d="m 728.51,440.328 h -3.754 v -26.759 h 1.822 15.367 v 3.57 H 728.51 v 7.932 h 11.411 v 3.57 H 728.51 v 8.116 h 13.435 v 3.571 z"
             style="fill:url(#linearGradient264);stroke:none"
             id="path266" /></g></g></g></g><g
     id="g268"
     transform="matrix(1,0,0,-1,-232.58621,586.70599)"><g
       id="g270"
       clip-path="url(#clipPath274)"><g
         id="g276"><g
           id="g278"><path
             d="m 753.519,439.684 c -1.424,-0.614 -2.505,-1.506 -3.248,-2.677 v 0 c -0.743,-1.172 -1.113,-2.587 -1.113,-4.242 v 0 -0.019 c 0,-1.89 0.398,-3.347 1.196,-4.371 v 0 c 0.797,-1.024 1.756,-1.73 2.879,-2.116 v 0 c 1.123,-0.387 2.581,-0.734 4.372,-1.04 v 0 l 0.276,-0.055 c 0.036,-0.012 0.077,-0.019 0.119,-0.019 v 0 c 0.043,0 0.082,-0.007 0.12,-0.018 v 0 c 1.214,-0.221 2.204,-0.463 2.972,-0.727 v 0 c 0.766,-0.264 1.392,-0.669 1.878,-1.215 v 0 c 0.483,-0.546 0.725,-1.285 0.725,-2.217 v 0 -0.019 c 0,-1.313 -0.533,-2.328 -1.6,-3.046 v 0 c -1.067,-0.717 -2.571,-1.076 -4.51,-1.076 v 0 c -1.435,0 -2.767,0.22 -3.993,0.662 v 0 c -1.227,0.441 -2.349,1.105 -3.367,1.988 v 0 l -2.339,-2.872 c 0.872,-0.735 1.809,-1.35 2.808,-1.839 v 0 c 0.999,-0.491 2.077,-0.86 3.23,-1.104 v 0 c 1.154,-0.245 1.73,-0.369 1.73,-0.369 v 0 h 1.931 c 2.074,0 3.845,0.304 5.311,0.911 v 0 c 1.465,0.608 2.586,1.491 3.357,2.651 v 0 c 0.775,1.159 1.16,2.555 1.16,4.187 v 0 0.036 c 0,1.754 -0.366,3.138 -1.095,4.15 v 0 c -0.729,1.012 -1.637,1.745 -2.723,2.2 v 0 c -1.085,0.454 -2.439,0.845 -4.059,1.177 v 0 c -0.061,0.012 -0.128,0.024 -0.202,0.036 v 0 c -0.072,0.013 -0.141,0.025 -0.202,0.037 v 0 c -0.05,0.013 -0.094,0.022 -0.139,0.029 v 0 c -0.043,0.005 -0.089,0.015 -0.136,0.027 v 0 c -1.388,0.27 -2.469,0.531 -3.249,0.782 v 0 c -0.779,0.252 -1.431,0.641 -1.951,1.168 v 0 c -0.522,0.528 -0.783,1.252 -0.783,2.172 v 0 0.019 c 0,1.337 0.506,2.37 1.519,3.1 v 0 c 1.012,0.73 2.432,1.096 4.26,1.096 v 0 c 1.019,0 2.033,-0.188 3.046,-0.562 v 0 c 1.012,-0.374 2.028,-0.935 3.045,-1.684 v 0 l 2.137,2.982 c -0.872,0.625 -1.759,1.145 -2.661,1.555 v 0 c -0.9,0.411 -1.815,0.721 -2.743,0.93 v 0 c -0.926,0.208 -1.867,0.312 -2.824,0.312 v 0 c -1.999,0 -3.71,-0.307 -5.134,-0.92"
             style="fill:url(#linearGradient284);stroke:none"
             id="path286" /></g></g></g></g><metadata
     id="metadata581"><rdf:RDF><cc:Work
         rdf:about=""><dc:title>Fireline Games</dc:title></cc:Work></rdf:RDF></metadata></svg>
